<mxfile host="app.diagrams.net" modified="2022-09-04T08:07:38.504Z" agent="5.0 (Macintosh)" etag="PfBDOzF5b8GaR2Mw4Cr5" version="20.2.7" type="github">
  <diagram id="riJ43WbffNf2br1lovXS" name="Page-1">
    <mxGraphModel dx="946" dy="530" grid="1" gridSize="10" guides="1" tooltips="1" connect="1" arrows="1" fold="1" page="1" pageScale="1" pageWidth="850" pageHeight="1100" math="0" shadow="0">
      <root>
        <mxCell id="0" />
        <mxCell id="1" parent="0" />
        <mxCell id="3_X0arQK1zrU6rEkSPP_-1" value="&lt;div&gt;Amazon DynamoDB &lt;br&gt;&lt;/div&gt;&lt;div&gt;(hot-storage)&lt;/div&gt;" style="outlineConnect=0;dashed=0;verticalLabelPosition=bottom;verticalAlign=top;align=center;html=1;shape=mxgraph.aws3.dynamo_db;fillColor=#2E73B8;gradientColor=none;" vertex="1" parent="1">
          <mxGeometry x="330" y="210" width="72" height="81" as="geometry" />
        </mxCell>
        <mxCell id="3_X0arQK1zrU6rEkSPP_-2" value="&lt;div&gt;Amazon S3 &lt;br&gt;&lt;/div&gt;&lt;div&gt;(cold-storage)&lt;/div&gt;" style="outlineConnect=0;dashed=0;verticalLabelPosition=bottom;verticalAlign=top;align=center;html=1;shape=mxgraph.aws3.s3;fillColor=#E05243;gradientColor=none;" vertex="1" parent="1">
          <mxGeometry x="330" y="390" width="76.5" height="93" as="geometry" />
        </mxCell>
        <mxCell id="3_X0arQK1zrU6rEkSPP_-3" value="Amazon EMR" style="outlineConnect=0;dashed=0;verticalLabelPosition=bottom;verticalAlign=top;align=center;html=1;shape=mxgraph.aws3.emr;fillColor=#F58534;gradientColor=none;" vertex="1" parent="1">
          <mxGeometry x="150" y="309" width="67.5" height="81" as="geometry" />
        </mxCell>
        <mxCell id="3_X0arQK1zrU6rEkSPP_-4" value="" style="endArrow=classic;html=1;rounded=0;entryX=0;entryY=0.5;entryDx=0;entryDy=0;entryPerimeter=0;" edge="1" parent="1" source="3_X0arQK1zrU6rEkSPP_-3" target="3_X0arQK1zrU6rEkSPP_-1">
          <mxGeometry width="50" height="50" relative="1" as="geometry">
            <mxPoint x="400" y="310" as="sourcePoint" />
            <mxPoint x="450" y="260" as="targetPoint" />
          </mxGeometry>
        </mxCell>
        <mxCell id="3_X0arQK1zrU6rEkSPP_-5" value="Dropbox Audit-Log Service" style="rounded=1;whiteSpace=wrap;html=1;fillColor=#fff2cc;strokeColor=#d6b656;" vertex="1" parent="1">
          <mxGeometry x="305" y="40" width="120" height="60" as="geometry" />
        </mxCell>
        <mxCell id="3_X0arQK1zrU6rEkSPP_-6" value="" style="endArrow=classic;html=1;rounded=0;exitX=0.5;exitY=1;exitDx=0;exitDy=0;entryX=0.5;entryY=0;entryDx=0;entryDy=0;entryPerimeter=0;" edge="1" parent="1" source="3_X0arQK1zrU6rEkSPP_-5" target="3_X0arQK1zrU6rEkSPP_-1">
          <mxGeometry width="50" height="50" relative="1" as="geometry">
            <mxPoint x="400" y="310" as="sourcePoint" />
            <mxPoint x="450" y="260" as="targetPoint" />
          </mxGeometry>
        </mxCell>
        <mxCell id="3_X0arQK1zrU6rEkSPP_-7" value="Reads/Writes from Dynamo DB" style="text;html=1;strokeColor=none;fillColor=none;align=center;verticalAlign=middle;whiteSpace=wrap;rounded=0;" vertex="1" parent="1">
          <mxGeometry x="370" y="140" width="100" height="30" as="geometry" />
        </mxCell>
        <mxCell id="3_X0arQK1zrU6rEkSPP_-8" value="Reads data (at end of data )" style="text;html=1;strokeColor=none;fillColor=none;align=center;verticalAlign=middle;whiteSpace=wrap;rounded=0;" vertex="1" parent="1">
          <mxGeometry x="180" y="261" width="90" height="30" as="geometry" />
        </mxCell>
        <mxCell id="3_X0arQK1zrU6rEkSPP_-10" value="" style="endArrow=classic;html=1;rounded=0;exitX=0.5;exitY=1;exitDx=0;exitDy=0;exitPerimeter=0;entryX=0;entryY=0.5;entryDx=0;entryDy=0;entryPerimeter=0;" edge="1" parent="1" source="3_X0arQK1zrU6rEkSPP_-3" target="3_X0arQK1zrU6rEkSPP_-2">
          <mxGeometry width="50" height="50" relative="1" as="geometry">
            <mxPoint x="400" y="290" as="sourcePoint" />
            <mxPoint x="450" y="240" as="targetPoint" />
          </mxGeometry>
        </mxCell>
        <mxCell id="3_X0arQK1zrU6rEkSPP_-11" value="Archives Data" style="text;html=1;strokeColor=none;fillColor=none;align=center;verticalAlign=middle;whiteSpace=wrap;rounded=0;" vertex="1" parent="1">
          <mxGeometry x="210" y="421.5" width="85" height="30" as="geometry" />
        </mxCell>
      </root>
    </mxGraphModel>
  </diagram>
</mxfile>
